<svg width="24" height="24" viewBox="0 0 24 24" fill="none" xmlns="http://www.w3.org/2000/svg">
<path fill-rule="evenodd" clip-rule="evenodd" d="M9 4C8.44772 4 8 4.44772 8 5V6H6.66667C5.19391 6 4 7.13964 4 8.54545V17.4545C4 18.8604 5.19391 20 6.66667 20H17.3333C18.8061 20 20 18.8604 20 17.4545V8.54545C20 7.13964 18.8061 6 17.3333 6H16V5C16 4.44772 15.5523 4 15 4C14.4477 4 14 4.44772 14 5V6H10V5C10 4.44772 9.55228 4 9 4ZM6 9C6 8.44772 6.44772 8 7 8H17C17.5523 8 18 8.44772 18 9V17C18 17.5523 17.5523 18 17 18H7C6.44772 18 6 17.5523 6 17V9ZM8 11C8 10.4477 8.44772 10 9 10H15C15.5523 10 16 10.4477 16 11C16 11.5523 15.5523 12 15 12H9C8.44772 12 8 11.5523 8 11ZM9 14C8.44772 14 8 14.4477 8 15C8 15.5523 8.44772 16 9 16H11C11.5523 16 12 15.5523 12 15C12 14.4477 11.5523 14 11 14H9Z" fill="#919294"/>
</svg>
