<svg width="24" height="24" viewBox="0 0 24 24" fill="none" xmlns="http://www.w3.org/2000/svg">
<path fill-rule="evenodd" clip-rule="evenodd" d="M16.5 9C17.8807 9 19 7.88071 19 6.5C19 5.11929 17.8807 4 16.5 4C15.1193 4 14 5.11929 14 6.5C14 6.67223 14.0174 6.84039 14.0506 7.00281L9.2205 9.68619C8.77231 9.26091 8.16663 9 7.5 9C6.11929 9 5 10.1193 5 11.5C5 12.8807 6.11929 14 7.5 14C8.16663 14 8.77231 13.7391 9.2205 13.3138L14.0506 15.9972C14.0174 16.1596 14 16.3278 14 16.5C14 17.8807 15.1193 19 16.5 19C17.8807 19 19 17.8807 19 16.5C19 15.1193 17.8807 14 16.5 14C15.8334 14 15.2277 14.2609 14.7795 14.6862L9.94942 12.0028C9.98258 11.8404 10 11.6722 10 11.5C10 11.3278 9.98258 11.1596 9.94942 10.9972L14.7795 8.3138C15.2277 8.73908 15.8334 9 16.5 9Z" fill="#919294"/>
</svg>
