<svg width="24" height="24" viewBox="0 0 24 24" fill="none" xmlns="http://www.w3.org/2000/svg">
<path fill-rule="evenodd" clip-rule="evenodd" d="M12.5 7C10.0147 7 8 9.01472 8 11.5V13C8 13.5523 7.55228 14 7 14C6.44772 14 6 13.5523 6 13V11.5C6 7.91015 8.91015 5 12.5 5C16.0899 5 19 7.91015 19 11.5C19 15.0899 16.0899 18 12.5 18C11.9477 18 11.5 17.5523 11.5 17C11.5 16.4477 11.9477 16 12.5 16C14.9853 16 17 13.9853 17 11.5C17 9.01472 14.9853 7 12.5 7Z" fill="#919294"/>
<path d="M4.50001 12C4.306 12 4.1295 12.1122 4.04721 12.2879C3.96492 12.4636 3.99169 12.6711 4.1159 12.8201L6.6159 15.8201C6.71089 15.9341 6.85162 16 7.00001 16C7.1484 16 7.28912 15.9341 7.38412 15.8201L9.88412 12.8201C10.0083 12.6711 10.0351 12.4636 9.9528 12.2879C9.87051 12.1122 9.69402 12 9.50001 12H4.50001Z" fill="#919294"/>
</svg>
