<svg width="24" height="24" viewBox="0 0 24 24" fill="none" xmlns="http://www.w3.org/2000/svg">
<path d="M12.5 17C15.5376 17 18 14.5376 18 11.5C18 8.46243 15.5376 6 12.5 6C9.46243 6 7 8.46243 7 11.5V13" stroke="#919294" stroke-width="2" stroke-linecap="round" stroke-linejoin="round"/>
<path d="M4.50001 12C4.306 12 4.1295 12.1122 4.04721 12.2879C3.96492 12.4636 3.99169 12.6711 4.1159 12.8201L6.6159 15.8201C6.71089 15.9341 6.85162 16 7.00001 16C7.1484 16 7.28912 15.9341 7.38412 15.8201L9.88412 12.8201C10.0083 12.6711 10.0351 12.4636 9.9528 12.2879C9.87051 12.1122 9.69402 12 9.50001 12H4.50001Z" fill="#919294"/>
</svg>
