<svg width="24" height="24" viewBox="0 0 24 24" fill="none" xmlns="http://www.w3.org/2000/svg">
<path fill-rule="evenodd" clip-rule="evenodd" d="M18 5H14.82C14.4 3.84 13.3 3 12 3C10.7 3 9.6 3.84 9.18 5H6C4.9 5 4 5.9 4 7V18C4 19.1 4.9 20 6 20H18C19.1 20 20 19.1 20 18V7C20 5.9 19.1 5 18 5ZM12 4C12.55 4 13 4.45 13 5C13 5.55 12.55 6 12 6C11.45 6 11 5.55 11 5C11 4.45 11.45 4 12 4ZM12 9C13.1067 9 14 9.89333 14 11C14 12.1067 13.1067 13 12 13C10.8933 13 10 12.1067 10 11C10 9.89333 10.8933 9 12 9ZM16.8317 17.0182C16.9894 17.5474 16.5523 18 16 18H8C7.44772 18 7.01058 17.5474 7.16834 17.0182C7.52132 15.8339 8.6145 14 12 14C15.3855 14 16.4787 15.8339 16.8317 17.0182Z" fill="#919294"/>
</svg>
