<svg width="24" height="24" viewBox="0 0 24 24" fill="none" xmlns="http://www.w3.org/2000/svg">
<path fill-rule="evenodd" clip-rule="evenodd" d="M12.3829 19.8285C15.5865 18.3239 19 14.7352 19 10.8011V7.31004C19 6.89285 18.741 6.5195 18.3503 6.37338L12.3503 4.12975C12.1244 4.04529 11.8756 4.04529 11.6497 4.12975L5.64975 6.37338C5.25899 6.5195 5 6.89285 5 7.31004V10.8011C5 14.7352 8.41355 18.3239 11.6171 19.8285C11.8601 19.9426 12.1399 19.9426 12.3829 19.8285ZM15.5303 10.0291C15.8232 9.73621 15.8232 9.26134 15.5303 8.96844C15.2374 8.67555 14.7626 8.67555 14.4697 8.96844L10.5303 12.9078L9.59099 11.9684C9.2981 11.6756 8.82323 11.6756 8.53033 11.9684C8.23744 12.2613 8.23744 12.7362 8.53033 13.0291L9.82323 14.322C10.2138 14.7125 10.8469 14.7125 11.2374 14.322L15.5303 10.0291Z" fill="#919294"/>
</svg>
